<svg xmlns="http://www.w3.org/2000/svg" xmlns:xlink="http://www.w3.org/1999/xlink" width="500" zoomAndPan="magnify" viewBox="0 0 375 374.999991" height="500" preserveAspectRatio="xMidYMid meet" version="1.0"><defs><g/></defs><g fill="#0887cf" fill-opacity="1"><g transform="translate(21.276284, 223.143545)"><g><path d="M 36.546875 1.125 C 15.816406 1.125 5.453125 -10.21875 5.453125 -32.90625 C 5.453125 -44.195312 8.273438 -52.828125 13.921875 -58.796875 C 19.578125 -64.773438 27.628906 -67.765625 38.078125 -67.765625 C 45.359375 -67.765625 52.265625 -66.269531 58.796875 -63.28125 L 53.484375 -49.140625 C 50.585938 -50.347656 47.925781 -51.300781 45.5 -52 C 43.070312 -52.707031 40.597656 -53.0625 38.078125 -53.0625 C 28.648438 -53.0625 23.9375 -46.390625 23.9375 -33.046875 C 23.9375 -19.972656 28.648438 -13.4375 38.078125 -13.4375 C 41.628906 -13.4375 44.875 -13.898438 47.8125 -14.828125 C 50.75 -15.765625 53.710938 -17.257812 56.703125 -19.3125 L 56.703125 -3.78125 C 53.804688 -1.914062 50.863281 -0.632812 47.875 0.0625 C 44.894531 0.769531 41.117188 1.125 36.546875 1.125 Z M 36.546875 1.125 "/></g></g></g><g fill="#0887cf" fill-opacity="1"><g transform="translate(74.037919, 223.143545)"><g><path d="M 10.921875 -86.9375 L 37.9375 -86.9375 C 50.351562 -86.9375 59.335938 -85.1875 64.890625 -81.6875 C 70.441406 -78.1875 73.21875 -72.609375 73.21875 -64.953125 C 73.21875 -59.640625 72.023438 -55.347656 69.640625 -52.078125 C 67.265625 -48.816406 63.976562 -46.859375 59.78125 -46.203125 L 59.78125 -45.5 C 65.382812 -44.289062 69.394531 -42.003906 71.8125 -38.640625 C 74.238281 -35.273438 75.453125 -30.796875 75.453125 -25.203125 C 75.453125 -17.265625 72.582031 -11.078125 66.84375 -6.640625 C 61.101562 -2.210938 53.335938 0 43.546875 0 L 10.921875 0 Z M 29.40625 -52.5 L 40.046875 -52.5 C 45.078125 -52.5 48.710938 -53.269531 50.953125 -54.8125 C 53.191406 -56.351562 54.3125 -58.894531 54.3125 -62.4375 C 54.3125 -65.800781 53.097656 -68.203125 50.671875 -69.640625 C 48.253906 -71.085938 44.382812 -71.8125 39.0625 -71.8125 L 29.40625 -71.8125 Z M 29.40625 -37.9375 L 29.40625 -15.265625 L 41.4375 -15.265625 C 51.332031 -15.265625 56.28125 -19.179688 56.28125 -27.015625 C 56.28125 -34.296875 51.097656 -37.9375 40.734375 -37.9375 Z M 29.40625 -37.9375 "/></g></g></g><g fill="#0887cf" fill-opacity="1"><g transform="translate(146.44936, 223.143545)"><g><path d="M 23.9375 -33.3125 C 23.9375 -26.78125 25.03125 -21.832031 27.21875 -18.46875 C 29.414062 -15.113281 32.941406 -13.4375 37.796875 -13.4375 C 42.648438 -13.4375 46.125 -15.066406 48.21875 -18.328125 C 50.320312 -21.597656 51.375 -26.59375 51.375 -33.3125 C 51.375 -40.039062 50.300781 -45.015625 48.15625 -48.234375 C 46.007812 -51.453125 42.507812 -53.0625 37.65625 -53.0625 C 32.800781 -53.0625 29.300781 -51.453125 27.15625 -48.234375 C 25.007812 -45.015625 23.9375 -40.039062 23.9375 -33.3125 Z M 70 -33.3125 C 70 -22.300781 67.128906 -13.804688 61.390625 -7.828125 C 55.648438 -1.859375 47.691406 1.125 37.515625 1.125 C 32.660156 1.125 28.273438 0.332031 24.359375 -1.25 C 20.441406 -2.84375 17.082031 -5.128906 14.28125 -8.109375 C 11.476562 -11.097656 9.304688 -14.71875 7.765625 -18.96875 C 6.222656 -23.21875 5.453125 -28 5.453125 -33.3125 C 5.453125 -44.332031 8.253906 -52.828125 13.859375 -58.796875 C 19.460938 -64.773438 27.488281 -67.765625 37.9375 -67.765625 C 42.695312 -67.765625 47.0625 -66.945312 51.03125 -65.3125 C 55 -63.675781 58.378906 -61.363281 61.171875 -58.375 C 63.972656 -55.394531 66.144531 -51.78125 67.6875 -47.53125 C 69.226562 -43.28125 70 -38.539062 70 -33.3125 Z M 70 -33.3125 "/></g></g></g><g fill="#0887cf" fill-opacity="1"><g transform="translate(214.269688, 223.143545)"><g><path d="M 23.9375 -33.3125 C 23.9375 -26.78125 25.03125 -21.832031 27.21875 -18.46875 C 29.414062 -15.113281 32.941406 -13.4375 37.796875 -13.4375 C 42.648438 -13.4375 46.125 -15.066406 48.21875 -18.328125 C 50.320312 -21.597656 51.375 -26.59375 51.375 -33.3125 C 51.375 -40.039062 50.300781 -45.015625 48.15625 -48.234375 C 46.007812 -51.453125 42.507812 -53.0625 37.65625 -53.0625 C 32.800781 -53.0625 29.300781 -51.453125 27.15625 -48.234375 C 25.007812 -45.015625 23.9375 -40.039062 23.9375 -33.3125 Z M 70 -33.3125 C 70 -22.300781 67.128906 -13.804688 61.390625 -7.828125 C 55.648438 -1.859375 47.691406 1.125 37.515625 1.125 C 32.660156 1.125 28.273438 0.332031 24.359375 -1.25 C 20.441406 -2.84375 17.082031 -5.128906 14.28125 -8.109375 C 11.476562 -11.097656 9.304688 -14.71875 7.765625 -18.96875 C 6.222656 -23.21875 5.453125 -28 5.453125 -33.3125 C 5.453125 -44.332031 8.253906 -52.828125 13.859375 -58.796875 C 19.460938 -64.773438 27.488281 -67.765625 37.9375 -67.765625 C 42.695312 -67.765625 47.0625 -66.945312 51.03125 -65.3125 C 55 -63.675781 58.378906 -61.363281 61.171875 -58.375 C 63.972656 -55.394531 66.144531 -51.78125 67.6875 -47.53125 C 69.226562 -43.28125 70 -38.539062 70 -33.3125 Z M 70 -33.3125 "/></g></g></g><g fill="#0887cf" fill-opacity="1"><g transform="translate(278.051969, 223.143545)"><g><path d="M 26.875 -36.125 L 34.859375 -46.203125 L 53.484375 -66.5 L 73.921875 -66.5 L 47.453125 -37.65625 L 75.59375 0 L 54.59375 0 L 35.421875 -26.875 L 27.71875 -20.71875 L 27.71875 0 L 9.515625 0 L 9.515625 -92.546875 L 27.71875 -92.546875 L 27.71875 -51.234375 L 26.734375 -36.125 Z M 26.875 -36.125 "/></g></g></g></svg>